:SAMPLES-PER-SECOND 30
:FULLY-SPECIFIED
:DEGREES
350
root  -48.396 38.8919 1.8379 -89.4563 -87.9882 82.307
RightUpLeg  -26.2984 -8.32558 -8.44579
RightLeg  60.7593 1.40058 2.19836
RightFoot  -5.26462 -0.56673 9.95363
RightToes  1.45519e-009 0 -3.6325e-017
Spine  23.373 0.477625 -3.82072
Spine1  12.2201 -0.855509 1.25993
HEad  -33.8374 4.39586 -3.23955
LeftShoulder1  0.629701 1.03646 -18.9559
LeftArm  2.06167 -7.26342 -66.7996
LeftForeArm  22.1451 -71.6633 -34.8327
LeftHand  0.0166193 6.46439 4.92024
RightShoulder  -0.00319447 -3.48921 21.6535
RightArm  23.8736 -5.95669 51.4176
RightForeArm  40.7699 72.5894 33.3328
RightHand  -0.493887 9.98222 -4.12785
LeftUpLeg  -11.141 6.44616 -5.08086
LeftLeg  27.522 2.94131 2.02208
LeftFoot  -9.20609 -0.0662115 6.52083
LeftToes  -2.53752e-010 -2.07034e-011 -2.70101e-011
351
root  -49.1594 39.1178 2.0098 -72.3463 -87.9726 65.1607
RightUpLeg  -27.2684 -9.6088 -7.89274
RightLeg  53.8991 1.70412 2.10709
RightFoot  -5.48841 -0.51909 9.40506
RightToes  1.45519e-009 0 -3.6325e-017
Spine  23.0094 -0.00392591 -3.88841
Spine1  12.5273 -1.40387 1.59378
HEad  -34.0713 4.56215 -3.14914
LeftShoulder1  0.61785 1.09108 -19.0503
LeftArm  2.46517 -6.87159 -66.6724
LeftForeArm  23.083 -72.0018 -35.5984
LeftHand  0.0411928 6.96534 5.33526
RightShoulder  -0.083007 -3.77028 22.0131
RightArm  23.4292 -7.01597 49.5943
RightForeArm  39.5994 72.5495 33.4932
RightHand  -0.599967 9.63031 -5.02311
LeftUpLeg  -8.8578 5.98634 -5.17323
LeftLeg  25.7386 2.96673 1.91688
LeftFoot  -9.56974 -0.0424452 6.45674
LeftToes  -2.53752e-010 -2.07034e-011 -2.70101e-011
352
root  -49.8755 39.2616 2.12645 -73.198 -87.8598 66.3296
RightUpLeg  -28.3278 -9.76642 -7.24858
RightLeg  46.1687 2.24026 2.18757
RightFoot  -5.37396 -0.550524 9.83155
RightToes  1.45519e-009 0 -3.6325e-017
Spine  22.9245 -0.109742 -4.02526
Spine1  11.7132 -1.50388 1.9054
HEad  -33.3316 4.3848 -3.18095
LeftShoulder1  0.616119 1.15451 -19.7058
LeftArm  3.291 -6.49596 -65.7807
LeftForeArm  23.9367 -72.2603 -36.1854
LeftHand  0.0422505 7.08034 5.04453
RightShoulder  -0.097846 -3.82037 22.1801
RightArm  22.806 -8.56779 47.964
RightForeArm  39.2442 72.6161 33.7658
RightHand  -0.545688 10.127 -4.47436
LeftUpLeg  -7.28457 6.27445 -5.3256
LeftLeg  24.3826 2.68725 1.68573
LeftFoot  -10.1563 -0.00373442 6.2824
LeftToes  -2.53752e-010 -2.07034e-011 -2.70101e-011
353
root  -50.6332 39.3758 2.23858 -73.1951 -87.7647 66.6317
RightUpLeg  -28.5776 -9.4965 -6.65199
RightLeg  37.6279 2.40417 1.74042
RightFoot  -5.01044 -0.590688 10.041
RightToes  1.45519e-009 0 -3.6325e-017
Spine  22.3813 -0.251067 -4.08042
Spine1  11.5738 -1.69438 2.36368
HEad  -32.6847 4.31795 -3.28748
LeftShoulder1  0.589666 1.324 -20.6302
LeftArm  4.37586 -6.26644 -64.4485
LeftForeArm  25.0817 -72.5957 -36.9756
LeftHand  0.00600224 6.13588 5.19012
RightShoulder  -0.0791277 -3.75663 21.976
RightArm  22.3578 -9.67523 46.7856
RightForeArm  38.3949 72.691 34.1828
RightHand  -0.579633 10.2539 -4.69548
LeftUpLeg  -5.69496 6.42494 -5.45973
LeftLeg  23.1652 2.56408 1.55238
LeftFoot  -10.7971 0.0348749 6.34757
LeftToes  -2.53752e-010 -2.07034e-011 -2.70101e-011
354
root  -51.4176 39.4225 2.32425 -78.4827 -87.4749 72.1165
RightUpLeg  -28.1726 -9.10606 -6.33571
RightLeg  29.0618 1.95253 0.952509
RightFoot  -4.90104 -0.587133 9.81905
RightToes  1.45519e-009 0 -3.6325e-017
Spine  21.8252 -0.329494 -4.2189
Spine1  11.5569 -1.76688 2.4976
HEad  -32.1537 3.63175 -3.46386
LeftShoulder1  0.51873 1.65357 -21.6194
LeftArm  5.65923 -5.57239 -63.0207
LeftForeArm  26.6447 -73.0789 -38.2325
LeftHand  0.0204592 6.31819 5.88545
RightShoulder  -0.0849492 -3.77628 21.7623
RightArm  21.9469 -10.4756 45.9919
RightForeArm  37.7667 72.834 34.7584
RightHand  -0.585189 10.2634 -4.73408
LeftUpLeg  -4.19716 6.58168 -5.82772
LeftLeg  22.4662 2.63093 1.54097
LeftFoot  -11.5918 0.0831836 6.26216
LeftToes  -2.53752e-010 -2.07034e-011 -2.70101e-011
355
root  -52.2457 39.4122 2.38229 -74.544 -86.9458 68.3844
RightUpLeg  -27.1305 -9.4227 -6.06791
RightLeg  20.7244 1.50937 0.408923
RightFoot  -5.02033 -0.589141 10.0261
RightToes  1.45519e-009 0 -3.6325e-017
Spine  21.0216 -0.592504 -3.957
Spine1  11.9668 -1.77293 1.87764
HEad  -32.0043 2.71255 -2.94616
LeftShoulder1  0.5391 1.53925 -20.9997
LeftArm  6.09368 -3.74398 -62.8232
LeftForeArm  29.228 -73.7003 -39.8471
LeftHand  -0.0107222 5.70813 6.35791
RightShoulder  -0.207655 -4.19155 22.7678
RightArm  22.0112 -10.5429 44.6356
RightForeArm  37.6184 73.0273 35.3945
RightHand  -0.61894 10.0448 -5.04415
LeftUpLeg  -2.85122 6.47321 -6.27304
LeftLeg  22.1604 2.59412 1.50569
LeftFoot  -12.6974 0.148208 6.02837
LeftToes  -2.53752e-010 -2.07034e-011 -2.70101e-011
356
root  -53.1311 39.3912 2.43418 -66.3649 -86.3312 60.1856
RightUpLeg  -25.5612 -10.203 -5.94402
RightLeg  13.6665 1.55169 0.401346
RightFoot  -4.69949 -0.574369 9.32783
RightToes  1.45519e-009 0 -3.6325e-017
Spine  20.4317 -0.855863 -3.41309
Spine1  12.1204 -1.90716 1.71332
HEad  -31.9005 2.34069 -2.70057
LeftShoulder1  0.59437 1.38225 -21.6177
LeftArm  7.19269 -1.89587 -61.735
LeftForeArm  29.1094 -73.7375 -40.0293
LeftHand  -0.079768 4.50243 7.16608
RightShoulder  -0.180897 -4.10447 22.5006
RightArm  21.1287 -11.6629 44.4188
RightForeArm  38.4465 73.3165 36.1183
RightHand  -0.591681 9.92764 -4.87444
LeftUpLeg  -1.09071 5.90885 -6.65862
LeftLeg  21.7229 2.52589 1.45058
LeftFoot  -13.8754 0.213063 5.88044
LeftToes  -2.53752e-010 -2.07034e-011 -2.70101e-011
357
root  -54.0517 39.2833 2.40227 -65.2611 -85.2661 59.3595
RightUpLeg  -24.547 -10.0325 -6.63569
RightLeg  9.19471 1.21475 0.620136
RightFoot  -4.56397 -0.535922 8.50844
RightToes  1.45519e-009 0 -3.6325e-017
Spine  19.4144 -0.750757 -3.81248
Spine1  12.308 -1.91273 1.9531
HEad  -31.5626 1.63957 -3.045
LeftShoulder1  0.609605 1.3694 -22.1853
LeftArm  8.33008 -0.0549462 -60.7057
LeftForeArm  29.1221 -73.665 -39.749
LeftHand  0.00834149 6.17492 4.89273
RightShoulder  -0.210684 -4.1978 22.7467
RightArm  20.8557 -12.0642 44.0114
RightForeArm  37.9857 73.2298 35.9545
RightHand  -0.58573 10.2286 -4.74704
LeftUpLeg  0.230719 5.73264 -7.45201
LeftLeg  21.6951 2.34639 1.37197
LeftFoot  -15.2965 0.276953 5.34942
LeftToes  -2.53752e-010 -2.07034e-011 -2.70101e-011
358
root  -55.0433 39.1419 2.35836 -62.0832 -84.1367 55.8401
RightUpLeg  -22.7033 -9.37469 -7.46653
RightLeg  6.88438 0.851935 0.267046
RightFoot  -4.71817 -0.499012 8.04721
RightToes  1.45519e-009 0 -3.6325e-017
Spine  18.2549 -0.934758 -3.43638
Spine1  13.6877 -1.78223 0.951793
HEad  -32.057 0.874351 -2.32848
LeftShoulder1  0.549181 1.56149 -21.9401
LeftArm  9.83155 1.0058 -59.9797
LeftForeArm  27.1483 -73.2421 -38.6747
LeftHand  0.0187154 6.27144 6.01398
RightShoulder  -0.334087 -4.58715 23.8082
RightArm  20.4608 -11.3879 43.7908
RightForeArm  37.1471 72.8344 34.9076
RightHand  -0.621612 9.75785 -5.13893
LeftUpLeg  2.29846 5.72553 -7.89226
LeftLeg  21.7918 1.60807 1.04902
LeftFoot  -16.9299 0.348687 5.0508
LeftToes  -2.53752e-010 -2.07034e-011 -2.70101e-011
359
root  -56.1289 38.9545 2.2447 -54.9912 -82.8792 48.6403
RightUpLeg  -20.9491 -9.08396 -8.01073
RightLeg  6.86426 0.959397 -0.210531
RightFoot  -5.01014 -0.44412 7.24123
RightToes  1.45519e-009 0 -3.6325e-017
Spine  17.4932 -0.881734 -3.60439
Spine1  13.5132 -1.98782 1.7109
HEad  -31.6926 0.288926 -2.41091
LeftShoulder1  0.493294 1.8537 -23.5621
LeftArm  11.686 2.43541 -58.0744
LeftForeArm  25.3502 -72.9427 -38.0651
LeftHand  0.0268303 6.56982 5.4875
RightShoulder  -0.319624 -4.55013 23.4513
RightArm  19.667 -12.0912 44.2639
RightForeArm  36.4059 72.5539 34.2457
RightHand  -0.763193 9.80917 -6.19084
LeftUpLeg  4.05785 5.39424 -7.94897
LeftLeg  22.3443 0.697214 0.657622
LeftFoot  -18.7424 0.421486 4.77793
LeftToes  -2.53752e-010 -2.07034e-011 -2.70101e-011
